erDiagram

class Subject Component

class Section Component

class Attribute Component

class Classe Component

Subject ||--|{ Subject : contains

Subject ||--|{ Classe : contains



Classe ||--|{ Section : contains

Classe ||--|{ Attribute : contains

Section ||--|{ Attribute : contains

